# File created by Blade
# Date/Time:  Thu Jan 22 16:25:48 2015
# Frame Rate: 120.000 fps
#------------------------------------------------------
:FULLY-SPECIFIED
:DEGREES
1029
root 2.900657 37.302032 7.341823 -0.779997 -1.363579 3.863778
RightUpLeg 9.736736 -2.807768 -5.524922
RightLeg -8.814405 -0.000000 0.000000
RightFoot -10.613292 -21.823742 19.317562
RightToeBase 13.884718 -0.000000 -0.000000
LeftUpLeg 0.190373 4.454030 -1.126817
LeftLeg 11.371448 -0.000000 -0.000000
LeftFoot -12.172661 12.512321 -18.067902
LeftToeBase 5.187241 -0.000000 -0.000000
Spine 9.990512 -5.270203 -4.660884
RightShoulder -6.438278 -13.991628 -29.572494
RightArm 9.652926 29.498722 30.760120
RightForeArm 14.892492 -0.000000 15.435675
RightHand 2.173210 -0.000000 -1.942882
RightHandThumb1 -24.326973 -0.000000 -32.862282
LeftShoulder -26.538657 31.987150 11.194126
LeftArm 46.630492 -43.243001 -60.187079
LeftForeArm 31.666815 -0.000000 19.209844
LeftHand -23.971680 -0.000000 1.422520
LeftHandThumb1 -26.253704 0.000000 33.147579
Head -14.336964 11.071753 -3.038136
1030
root 2.869369 37.317854 7.311324 -0.679522 -1.445598 3.914254
RightUpLeg 9.539554 -2.617896 -5.504805
RightLeg -8.756581 -0.000000 0.000000
RightFoot -10.600136 -21.917168 19.374347
RightToeBase 14.072768 -0.000000 -0.000000
LeftUpLeg -0.280256 4.693924 -1.137337
LeftLeg 12.085695 -0.000000 -0.000000
LeftFoot -12.364486 12.203700 -18.145053
LeftToeBase 3.977058 -0.000000 -0.000000
Spine 9.865253 -5.136767 -4.563367
RightShoulder -6.444890 -13.713608 -29.770037
RightArm 9.344596 29.603666 30.425865
RightForeArm 14.759982 -0.000000 15.412996
RightHand 2.201001 -0.000000 -1.765027
RightHandThumb1 -24.326973 -0.000000 -32.862282
LeftShoulder -26.536299 31.985555 11.287600
LeftArm 46.855354 -43.683753 -60.166668
LeftForeArm 31.441567 0.000000 18.478039
LeftHand -23.766949 -0.000000 1.655549
LeftHandThumb1 -26.253704 0.000000 33.147579
Head -14.454986 11.072183 -3.120307
1031
root 2.840441 37.331226 7.286332 -0.616549 -1.586169 3.967041
RightUpLeg 9.364693 -2.562474 -5.505041
RightLeg -8.680348 -0.000000 0.000000
RightFoot -10.517633 -21.876284 19.297026
RightToeBase 13.991783 -0.000000 -0.000000
LeftUpLeg -0.683456 4.940603 -1.146117
LeftLeg 12.792587 -0.000000 -0.000000
LeftFoot -12.652430 11.832375 -18.412339
LeftToeBase 2.924128 -0.000000 -0.000000
Spine 9.759534 -4.900444 -4.485875
RightShoulder -6.523060 -13.522794 -29.909353
RightArm 9.145207 29.735010 30.089290
RightForeArm 14.570610 -0.000000 15.349900
RightHand 2.229532 -0.000000 -1.365741
RightHandThumb1 -24.326973 -0.000000 -32.862282
LeftShoulder -26.361727 31.883712 11.557333
LeftArm 46.835477 -44.063149 -60.026644
LeftForeArm 31.268827 -0.000000 17.772385
LeftHand -23.826582 -0.000000 1.958368
LeftHandThumb1 -26.253704 0.000000 33.147579
Head -14.495704 11.052851 -3.115753
1032
root 2.806902 37.341527 7.259121 -0.498858 -1.698089 3.965333
RightUpLeg 9.230457 -2.190534 -5.405305
RightLeg -8.782244 -0.000000 0.000000
RightFoot -10.466891 -22.215883 19.325699
RightToeBase 14.067817 -0.000000 -0.000000
LeftUpLeg -1.147481 5.100319 -1.113850
LeftLeg 13.510470 -0.000000 -0.000000
LeftFoot -13.098549 11.577806 -18.516703
LeftToeBase 2.092941 -0.000000 -0.000000
Spine 9.585583 -4.760292 -4.359618
RightShoulder -6.529364 -13.178183 -30.083255
RightArm 8.841862 29.712346 29.713302
RightForeArm 14.319942 -0.000000 15.335499
RightHand 2.188919 -0.000000 -0.959056
RightHandThumb1 -24.326973 -0.000000 -32.862282
LeftShoulder -26.294836 31.804574 11.748153
LeftArm 46.885581 -44.446621 -59.914487
LeftForeArm 31.273520 0.000000 17.050248
LeftHand -23.740652 -0.000000 2.020969
LeftHandThumb1 -26.253704 0.000000 33.147579
Head -14.524334 11.104103 -3.112959
